<svg width="22" height="19" viewBox="0 0 22 19" fill="none" xmlns="http://www.w3.org/2000/svg">
<g clip-path="url(#clip0_119_6851)">
<path d="M21.3176 7.11314L21.3192 7.10879C21.3728 6.97132 21.4079 6.84197 21.4498 6.68754C21.4653 6.63024 21.4818 6.56949 21.5005 6.50358V6.01939C21.3841 5.66949 21.2938 5.29776 21.2098 4.95171C21.1683 4.78069 21.1283 4.61593 21.0874 4.46318L21.0864 4.45963C20.914 3.79595 20.7462 3.12857 20.5789 2.46359C20.474 2.04654 20.3693 1.63043 20.2639 1.21677L20.2637 1.216C20.1998 0.963657 20.0822 0.79232 19.9407 0.682649C19.7991 0.572872 19.6014 0.5 19.3354 0.5H19.3028H19.2703H19.2377H19.2052H19.1726H19.1401H19.1075H19.075H19.0424H19.0099H18.9774H18.9448H18.9123H18.8797H18.8472H18.8146H18.7821H18.7495H18.717H18.6844H18.6519H18.6193H18.5868H18.5542H18.5217H18.4891H18.4566H18.424H18.3915H18.3589H18.3264H18.2938H18.2613H18.2287H18.1962H18.1636H18.1311H18.0985H18.066H18.0334H18.0009H17.9683H17.9358H17.9032H17.8707H17.8381H17.8056H17.773H17.7405H17.7079H17.6754H17.6428H17.6103H17.5777H17.5452H17.5126H17.4801H17.4475H17.415H17.3824H17.3499H17.3173H17.2848H17.2522H17.2197H17.1871H17.1546H17.122H17.0895H17.0569H17.0244H16.9918H16.9593H16.9267H16.8942H16.8616H16.8291H16.7965H16.764H16.7314H16.6989H16.6663H16.6338H16.6012H16.5687H16.5361H16.5036H16.471H16.4385H16.4059H16.3734H16.3408H16.3083H16.2757H16.2432H16.2106H16.1781H16.1456H16.113H16.0805H16.0479H16.0154H15.9828H15.9503H15.9177H15.8852H15.8526H15.8201H15.7875H15.755H15.7224H15.6899H15.6573H15.6248H15.5922H15.5597H15.5271H15.4946H15.462H15.4295H15.3969H15.3644H15.3318H15.2993H15.2667H15.2342H15.2016H15.1691H15.1365H15.104H15.0714H15.0389H15.0063H14.9738H14.9412H14.9087H14.8761H14.8436H14.811H14.7785H14.746H14.7134H14.6809H14.6483H14.6158H14.5832H14.5507H14.5181H14.4856H14.453H14.4205H14.3879H14.3554H14.3228H14.2903H14.2577H14.2252H14.1926H14.1601H14.1275H14.095H14.0624H14.0299H13.9973H13.9648H13.9322H13.8997H13.8671H13.8346H13.802H13.7695H13.7369H13.7044H13.6718H13.6393H13.6068H13.5742H13.5417H13.5091H13.4766H13.444H13.4115H13.3789H13.3464H13.3138H13.2813H13.2487H13.2162H13.1836H13.1511H13.1185H13.086H13.0534H13.0209H12.9883H12.9558H12.9232H12.8907H12.8581H12.8256H12.793H12.7605H12.7279H12.6954H12.6629H12.6303H12.5978H12.5652H12.5327H12.5001H12.4676H12.435H12.4025H12.3699H12.3374H12.3048H12.2723H12.2397H12.2072H12.1746H12.1421H12.1095H12.077H12.0444H12.0119H11.9793H11.9468H11.9142H11.8817H11.8491H11.8166H11.7841H11.7515H11.719H11.6864H11.6539H11.6213H11.5888H11.5562H11.5237H11.4911H11.4586H11.426H11.3935H11.3609H11.3284H11.2958H11.2633H11.2307H11.1982H11.1656H11.1331H11.1005H11.068H11.0355H11.0029H10.9704H10.9378H10.9053H10.8727H10.8402H10.8076H10.7751H10.7425H10.71H10.6774H10.6449H10.6123H10.5798H10.5472H10.5147H10.4821H10.4496H10.417H10.3845H10.352H10.3194H10.2869H10.2543H10.2218H10.1892H10.1567H10.1241H10.0916H10.059H10.0265H9.99393H9.96138H9.92883H9.89629H9.86374H9.83119H9.79865H9.7661H9.73355H9.701H9.66846H9.63591H9.60336H9.57081H9.53827H9.50572H9.47317H9.44062H9.40808H9.37553H9.34298H9.31043H9.27789H9.24534H9.21279H9.18025H9.1477H9.11515H9.0826H9.05006H9.01751H8.98496H8.95241H8.91987H8.88732H8.85477H8.82223H8.78968H8.75713H8.72458H8.69204H8.65949H8.62694H8.5944H8.56185H8.5293H8.49675H8.46421H8.43166H8.39911H8.36657H8.33402H8.30147H8.26892H8.23638H8.20383H8.17128H8.13874H8.10619H8.07364H8.04109H8.00855H7.976H7.94345H7.91091H7.87836H7.84581H7.81327H7.78072H7.74817H7.71563H7.68308H7.65053H7.61798H7.58544H7.55289H7.52034H7.4878H7.45525H7.4227H7.39016H7.35761H7.32506H7.29252H7.25997H7.22742H7.19488H7.16233H7.12978H7.09724H7.06469H7.03214H6.9996H6.96705H6.9345H6.90196H6.86941H6.83686H6.80432H6.77177H6.73922H6.70668H6.67413H6.64158H6.60904H6.57649H6.54394H6.5114H6.47885H6.4463H6.41376H6.38121H6.34866H6.31612H6.28357H6.25102H6.21848H6.18593H6.15338H6.12084H6.08829H6.05574H6.0232H5.99065H5.9581H5.92556H5.89301H5.86046H5.82792H5.79537H5.76283H5.73028H5.69773H5.66519H5.63264H5.60009H5.56755H5.535H5.50245H5.46991H5.43736H5.40482H5.37227H5.33972H5.30718H5.27463H5.24208H5.20954H5.17699H5.14444H5.1119H5.07935H5.04681H5.01426H4.98171H4.94917H4.91662H4.88408H4.85153H4.81898H4.78644H4.75389H4.72134H4.6888H4.65625H4.62371H4.59116H4.55861H4.52607H4.49352H4.46098H4.42843H4.39588H4.36334H4.33079H4.29824H4.2657H4.23315H4.20061H4.16806H4.13551H4.10297H4.07042H4.03788H4.00533H3.97278H3.94024H3.90769H3.87515H3.8426H3.81005H3.77751H3.74496H3.71242H3.67987H3.64733H3.61478H3.58223H3.54969H3.51714H3.4846H3.45205H3.4195H3.38696H3.35441H3.32187H3.28932H3.25678H3.22423H3.19168H3.15914H3.12659H3.09405H3.0615H3.02895H2.99641H2.96386H2.93132H2.89877H2.86623H2.83368H2.80114H2.76859H2.73604H2.7035H2.67095C2.39637 0.5 2.19723 0.573578 2.05591 0.683229C1.91468 0.792815 1.79567 0.966002 1.72907 1.2271L21.3176 7.11314ZM21.3176 7.11314C20.9365 8.119 20.2592 8.7479 19.2217 8.94529C18.196 9.13935 17.3507 8.80669 16.6553 7.9985L16.6549 7.99809M21.3176 7.11314L16.6549 7.99809M16.6549 7.99809C16.6154 7.95228 16.5553 7.88859 16.4746 7.83695M16.6549 7.99809L16.4746 7.83695M5.32541 8.01531L5.32544 8.01534C5.35907 7.97483 5.41117 7.91556 5.47891 7.86437C5.55022 7.81049 5.67242 7.74022 5.83708 7.73911C6.00212 7.73798 6.12575 7.80686 6.19873 7.86091C6.2671 7.91155 6.31995 7.97054 6.35492 8.01221C7.4729 9.32746 9.36707 9.32713 10.4867 8.01078C10.5236 7.96732 10.5798 7.90557 10.6533 7.85381C10.7328 7.79787 10.8627 7.73264 11.031 7.74247C11.1928 7.75191 11.3086 7.82647 11.3713 7.87614C11.4325 7.92451 11.481 7.97962 11.5111 8.01509L11.1302 8.33897L11.5111 8.01509C12.6267 9.32716 14.5208 9.32758 15.6484 8.00852L5.32541 8.01531ZM5.32541 8.01531L5.32116 8.02057M5.32541 8.01531L5.32116 8.02057M5.32116 8.02057C4.95231 8.47729 4.43541 8.79711 3.85534 8.92549L3.85534 8.92546M5.32116 8.02057L3.85534 8.92546M3.85534 8.92546L3.84988 8.92673M3.85534 8.92546L3.84988 8.92673M3.84988 8.92673C2.65931 9.20427 1.4351 8.628 0.841173 7.48798M3.84988 8.92673L0.841173 7.48798M16.4746 7.83695C16.3852 7.77978 16.252 7.72619 16.0895 7.74489M16.4746 7.83695L16.0895 7.74489M16.0895 7.74489C15.9381 7.76231 15.8317 7.83505 15.7749 7.8814M16.0895 7.74489L15.7749 7.8814M15.7749 7.8814C15.719 7.92698 15.6747 7.97771 15.6486 8.00827L15.7749 7.8814ZM0.841173 7.48798C0.554322 6.93639 0.418166 6.42648 0.542134 5.919L0.841173 7.48798ZM0.542173 5.91884C0.819203 4.78689 1.10775 3.65884 1.39706 2.52782C1.5078 2.09486 1.61866 1.66147 1.72903 1.22725L0.542173 5.91884Z" stroke="#5F5F5F"/>
<path d="M1.37793 10.4347C1.37793 12.8254 1.37793 15.1772 1.37793 17.5301C1.37793 18.4284 1.95606 18.9952 2.869 18.9958C4.59476 18.9958 6.31999 18.9958 8.04575 19C8.20724 19 8.25677 18.965 8.25623 18.796C8.24869 17.1215 8.25623 15.4492 8.24761 13.772C8.24761 13.61 8.28368 13.5638 8.45432 13.5643C10.1514 13.5718 11.8482 13.5718 13.5449 13.5643C13.7097 13.5643 13.756 13.5999 13.7554 13.7683C13.7484 15.4433 13.7554 17.1178 13.7473 18.7923C13.7473 18.9549 13.7834 19.0006 13.954 19C15.6653 18.9931 17.3765 18.9958 19.0877 18.9958C20.0707 18.9958 20.6251 18.4449 20.6251 17.469V10.4395C20.5481 10.4677 20.4889 10.4884 20.4302 10.5112C18.9948 11.0676 17.6205 10.9455 16.3075 10.1447C16.1777 10.065 16.1008 10.0948 15.9845 10.1596C14.385 11.0623 12.7836 11.0637 11.1802 10.1638C11.044 10.0873 10.9595 10.0841 10.8217 10.1638C9.22246 11.0669 7.61674 11.0669 6.01855 10.1638C5.87805 10.0841 5.79246 10.0894 5.66058 10.1713C4.82853 10.6972 3.84087 10.9305 2.85769 10.8332C2.34624 10.7782 1.84682 10.6437 1.37793 10.4347Z" fill="#FEFEFE"/>
<path d="M8.0503 18.7923L8.05138 18.4985L8.0503 18.7923ZM8.0503 18.7923H8.26001M8.0503 18.7923L8.2514 13.7683C8.25438 14.5412 8.25461 15.3136 8.25484 16.0862C8.25511 16.9876 8.25538 17.8892 8.26001 18.7923M8.0502 18.7934L7.76092 18.7948C7.75991 18.8014 7.75967 18.8051 7.75969 18.805C7.75972 18.805 7.75999 18.8014 7.76001 18.7933L8.0502 18.7934ZM8.0502 18.7934L8.04954 18.9963M8.0502 18.7934L1.38172 17.5263C1.38226 18.4247 1.95769 18.992 2.87279 18.992C3.40376 18.9923 3.93468 18.9923 4.46558 18.9922C5.66022 18.992 6.85475 18.9919 8.04954 18.9963M8.04954 18.9963C8.21318 18.9968 8.26001 18.9612 8.26001 18.7923M8.04954 18.9963L8.05029 18.7933L8.26001 18.7923M20.434 8.50856C20.332 8.54821 20.2303 8.58443 20.1289 8.61722L20.434 8.50856ZM20.434 8.50856C20.4749 8.49266 20.516 8.47778 20.5632 8.46071C20.5838 8.45326 20.6055 8.4454 20.6289 8.43684L20.434 8.50856ZM1.87794 9.14694C2.18138 9.23398 2.49242 9.29456 2.8075 9.32775L2.8075 9.32775L2.81048 9.32805C3.87417 9.43365 4.94314 9.1915 5.85363 8.63944C7.55779 9.57348 9.30002 9.57142 11.0049 8.63357C12.7115 9.56933 14.4504 9.56896 16.1593 8.6338C17.4227 9.37291 18.7567 9.54229 20.1289 9.14035V17.4652C20.1289 17.8598 20.0185 18.0986 19.8765 18.2396C19.7339 18.3812 19.4914 18.4918 19.0913 18.492C18.7198 18.492 18.3481 18.4919 17.9764 18.4918C16.7357 18.4914 15.4938 18.4909 14.2521 18.4952C14.2539 17.822 14.2541 17.1528 14.2543 16.4841C14.2546 15.5802 14.2548 14.6773 14.2592 13.767V13.7646V13.7641C14.2592 13.679 14.2592 13.4233 14.0576 13.2344C13.8704 13.059 13.6308 13.0602 13.553 13.0605C13.5509 13.0606 13.549 13.0606 13.5471 13.0606L13.5469 13.0606C11.8514 13.0669 10.1558 13.0669 8.45999 13.0606H8.45811H8.45753C8.37196 13.0606 8.11887 13.0606 7.9299 13.2574C7.74984 13.4449 7.75101 13.6868 7.75138 13.7646C7.75139 13.7665 7.7514 13.7683 7.75141 13.7699L7.75141 13.7702C7.75436 14.5368 7.7546 15.3094 7.75484 16.0832C7.75509 16.8876 7.75533 17.6934 7.75864 18.4953C6.66039 18.4919 5.56194 18.492 4.46435 18.4922C3.93369 18.4923 3.40323 18.4923 2.8731 18.492H2.87279C2.51943 18.492 2.28211 18.3844 2.13495 18.2396C1.98863 18.0957 1.88192 17.8664 1.88172 17.526L1.88172 17.5254C1.87782 15.3979 1.87789 11.6261 1.87794 9.15841C1.87794 9.15458 1.87794 9.15076 1.87794 9.14694ZM8.04619 18.4996C8.04793 18.4992 8.04959 18.4989 8.05116 18.4986L8.05021 18.7923H7.76133C7.76226 18.7867 7.76367 18.7796 7.76582 18.7713C7.77574 18.7326 7.80363 18.6587 7.8754 18.5919C7.94527 18.5268 8.01664 18.506 8.04619 18.4996ZM13.9443 18.496C13.9436 18.4959 13.9432 18.4959 13.9433 18.4959L13.9443 18.496Z" stroke="#5F5F5F"/>
</g>
<defs>
<clipPath id="clip0_119_6851">
<rect width="22" height="19" fill="white"/>
</clipPath>
</defs>
</svg>
